<svg id="Capa_1" data-name="Capa 1" xmlns="http://www.w3.org/2000/svg" viewBox="0 0 292.3 61.8"><defs><style>.cls-1{fill:#fff;}</style></defs><g id="Capa_2" data-name="Capa 2"><g id="Capa_1-2" data-name="Capa 1-2"><path class="cls-1" d="M8.65,2.66c-.26,0-.35-.13-.26-.5A.69.69,0,0,1,9,1.56l.46-.08H23.78l.46.08a.71.71,0,0,1,.59.6c.09.37,0,.53-.27.5-.76-.11-1.32,2.4-1.31,2.85a5.36,5.36,0,0,0,.15,1.26l6.43,25.8a9,9,0,0,0,1.63,2.32c.5.59.87.86,1.12.82.49-.09.78.95.19,1.07l-.43.09H21l-.46-.09a.74.74,0,0,1-.6-.61c-.08-.35,0-.51.27-.46.66.11,1.24-2,1.28-2.54a5.82,5.82,0,0,0,0-1.18l-1.25-4.85H10.71L9.55,31.93a4.35,4.35,0,0,0,.46,3c.25.59.51.86.78.82s.36.11.27.46a.72.72,0,0,1-.6.61l-.47.09H.75c-.46-.1-.85-.11-.73-.7.08-.35.23-.51.48-.46s.62-.23,1.15-.82a10.23,10.23,0,0,0,1.51-2.08L10,5.52C9.94,5,9.4,2.55,8.65,2.66ZM3.6,34.39c.43,0,1.2-1.13,1.32-1.5L11.66,5.72a10.06,10.06,0,0,0-.44-1.8c-.08-.12-.42-.74-.48-.13-.05.27.3,1.55.3,1.8l-6.71,27A4,4,0,0,1,3.49,34C3.32,34.28,3.35,34.39,3.6,34.39ZM15.39,8.07,12.12,21.39h6.65Zm1.14-.71,3.47,14h.66L17.1,7.1c-.12-.36-.87-1.49-1.29-1.49s-.31.11-.13.33A4,4,0,0,1,16.53,7.36Zm4.9,19.78,1.38,5.51c0,.24-.38,1.53-.33,1.78.06.65.43,0,.51-.13a8.54,8.54,0,0,0,.41-1.8l-1.31-5.36Z"/><path class="cls-1" d="M56.5,30.81c.19-.13.59-.29.79-.44.6-.44.87-.79.83-1.06-.09-.59,1.05-.64,1.16-.06l.09.46-1.25,7.16H36.48l-.82-.1a.8.8,0,0,1-.81-.79v-.06c0-.48.18-.72.54-.73s.78-.3,1.26-.89a5.59,5.59,0,0,0,1.25-3.25V5.83a7.7,7.7,0,0,0-1.29-2.37c-.44-.57-.79-.84-1-.8-.52.07-.6-1,0-1.1L36,1.48H47.8c.48.08.89.1.84.68,0,.37-.19.53-.44.5s-.59.23-1,.8a7.47,7.47,0,0,0-1.32,2.37V30.39a1.91,1.91,0,0,0,.73.42ZM39,5.63V32.5c-.14.69-.12,1,.08,1s.38-.36.54-1V5.5c0-.47-.55-1.65-.9-1.76s-.33.07-.2.31A3.39,3.39,0,0,1,39,5.63Z"/><path class="cls-1" d="M81,36.21A9,9,0,0,0,89.41,39c1.79-.28,3.75-.79,4.36-1.93.38-.69.73-2,1.55-1.84,1.32.37,1.16,2.84.85,4.6-.56,3.16-1.9,4.91-4.78,6a10.64,10.64,0,0,1-6.06.55,12.46,12.46,0,0,1-5.48-3.53A14.89,14.89,0,0,1,76.31,37h-.68a17.84,17.84,0,0,1-12.92-5.22,17,17,0,0,1-5.34-12.61,17,17,0,0,1,5.34-12.6,18.59,18.59,0,0,1,25.85,0,17,17,0,0,1,5.36,12.6A18.06,18.06,0,0,1,81,36.21ZM69.07,3.74c.11-.13,0-.13-.28,0a12,12,0,0,0-3.25,2.05A16.71,16.71,0,0,0,63,8c-1.87,2.14-4.39,7.32-4.28,11.09A18.63,18.63,0,0,0,62.5,29.47,14.67,14.67,0,0,0,68,34c.43.22.67.27.73.15s-.11-.23-.36-.48a7.73,7.73,0,0,0-1.59-1,10.64,10.64,0,0,1-3.3-3.21,19.22,19.22,0,0,1-3.84-9.32c-.39-4.32,1.55-8.42,3.4-11A14,14,0,0,1,65.8,6.36ZM84.3,19.13a15.36,15.36,0,0,0-2.53-8.9C80.08,7.76,78,6.52,75.63,6.53s-4.45,1.24-6.13,3.7a15.28,15.28,0,0,0-2.5,8.9,15.35,15.35,0,0,0,2.57,8.94.67.67,0,0,1,0-.2c.42-1.35,2.78-2.34,4.59-1.63a6.66,6.66,0,0,1,3.12,3.21q.33.63.81,1.8C81.81,29.65,84.3,24.58,84.3,19.13Zm-11,9.55c-.75-.52-2.19-.25-2.22.57a1.65,1.65,0,0,0,.46,1.05,6.44,6.44,0,0,0,3.29,1.41,6.78,6.78,0,0,0-1.48-3Zm-.53-1a3.26,3.26,0,0,1,1,.37c1.51,1.37,1.94,3.73,2.66,5.86,1.4,4.78,3.39,8.36,7.33,10.58a6.76,6.76,0,0,0,3.14,1c.76.11,1.13.06,1.12-.16s-2.09-.55-2.29-.61C81,43,78.41,38.92,77,33.73a25.41,25.41,0,0,0-2.08-5.33,6.64,6.64,0,0,0-.75-.75A2.54,2.54,0,0,0,73,27.26c-.51-.06-.76,0-.76.08s.19.22.58.31ZM81.2,7.39a14.21,14.21,0,0,1,4,6.16c1.69,5.12.59,12-1.87,15.33a8,8,0,0,1-1.46,1.45,7.1,7.1,0,0,0-1.17,1.09c-.56.74-.46.83.28.29a17.41,17.41,0,0,0,3.52-3.6,18.37,18.37,0,0,0,1.86-13.23A17.14,17.14,0,0,0,83,8.29a7.47,7.47,0,0,0-2.17-1.74c-.71-.35-.87-.35-.51,0A8,8,0,0,0,81.2,7.39Z"/><path class="cls-1" d="M112.85,36.89c-2.92,0-5.53-.25-7.53-1.4a12.84,12.84,0,0,1-5.51-7.6c-.1-.39-.7-5.2-.66-5.77V5.81a8.64,8.64,0,0,0-1.31-2.38c-.44-.57-.79-.83-1-.79-.53.1-.54-1,0-1.08l.43-.08H109c.48.08.88.1.83.68,0,.37-.17.53-.41.48s-.6.22-1,.79a7.75,7.75,0,0,0-1.29,2.38V21.57a32.26,32.26,0,0,0,.89,8.59c.5,1.86,2.14,2.46,4.54,2.7.28,0,.57,0,.85.06a5.67,5.67,0,0,0,1.73-.35c2-.62,3.17-1.54,3.66-2.78a14.64,14.64,0,0,0,.93-4.18V5.81a7.83,7.83,0,0,0-1.32-2.38c-.44-.57-.78-.83-1-.79-.51.09-.55-1,0-1.08l.44-.08h10.51c.48.09.86.1.84.68,0,.37-.19.53-.44.48s-.59.22-1,.79a7.9,7.9,0,0,0-1.32,2.35l0,15.66a38.21,38.21,0,0,1-.75,6.74,10.45,10.45,0,0,1-4.43,6.42A12.91,12.91,0,0,1,114,36.89ZM99.22,22.14Zm.94-17V19l.11,5a17.77,17.77,0,0,0,1,5c.37.48.54.61.52.39a1.84,1.84,0,0,0-.16-.61,17.31,17.31,0,0,1-.77-4.79l-.11-5.09V5.06a5,5,0,0,0-1.32-2.15c-.22,0-.28.06-.2.28a7.32,7.32,0,0,1,.93,2Zm20.57.06V26a9.18,9.18,0,0,1-1,4.39c-.28.64-.32,1-.12.95s.44-.31.74-.91L121,29a7.81,7.81,0,0,0,.4-3V5.12A4.92,4.92,0,0,0,120.05,3c-.28-.08-.34,0-.2.29a6.3,6.3,0,0,1,.88,1.94Z"/><path class="cls-1" d="M145.13,1.48c.48.08.89.1.84.68,0,.37-.17.53-.42.5s-.59.23-1,.8a7.47,7.47,0,0,0-1.32,2.37V29.21a7.1,7.1,0,0,0,1.71,5.22c.47.57.89.85,1.25.85s.55.23.55.71-.27.73-.81.79l-.81.09H133.37l-.82-.09c-.54-.06-.81-.32-.81-.79s.18-.72.54-.71.78-.28,1.26-.85a7.1,7.1,0,0,0,1.71-5.22V5.83a8,8,0,0,0-1.31-2.37c-.44-.57-.79-.84-1.05-.8-.52.07-.56-1,0-1.1l.44-.08Zm-8.8,3.89V32.24c-.15.68-.12,1,.08,1s.37-.36.53-1v-27c0-.46-.54-1.65-.9-1.75s-.34,0-.19.28A3.77,3.77,0,0,1,136.33,5.37Z"/><path class="cls-1" d="M164.4,36.43c-.06-.63.28-.81.9-1.34s-.55-3.26-.61-3.51l-6.72-20V29.21a8.73,8.73,0,0,0,1.3,5.22c.35.57.66.85.93.85s.41.23.43.71a.69.69,0,0,1-.58.79h0l-.61.09h-8.83l-.61-.09a.68.68,0,0,1-.62-.75v0c0-.48.14-.72.41-.71s.59-.28.95-.85a9,9,0,0,0,1.3-5.22V5.83a8.53,8.53,0,0,0-1-2.37c-.34-.57-.6-.84-.79-.8-.41.07-.41-1,0-1.1l.34-.08h14.6l.48.08a.72.72,0,0,1,.61.6c.09.37,0,.53-.27.5-.7-.1-1.28,2-1.32,2.54a5.53,5.53,0,0,0,0,1.15l6.41,19.52L178.43,6.4A4.81,4.81,0,0,0,178,3.46c-.27-.57-.54-.84-.8-.8s-.37-.13-.28-.5a.71.71,0,0,1,.62-.6l.48-.08h15.26c.48.08.88.1.83.68,0,.37-.19.53-.44.5s-.58.23-1,.8a7.47,7.47,0,0,0-1.32,2.37V29.21A7.13,7.13,0,0,0,193,34.43c.49.57.91.85,1.27.85s.54.23.56.71-.27.73-.82.79l-.81.09H181.44l-.82-.09c-.54-.06-.8-.32-.79-.79s.18-.72.54-.71.78-.28,1.26-.85a7,7,0,0,0,1.69-5.22V10.06l-8.49,22.75c0,.58.55,3,1.34,2.88.28,0,.37.13.28.48a.74.74,0,0,1-.61.61l-.48.09H164.77C164.59,36.77,164.4,36.7,164.4,36.43ZM153,5.37V32.24c-.12.68-.09,1,.1,1s.34-.36.47-1v-27a3.1,3.1,0,0,0-.79-1.75c-.3-.11-.29,0-.13.28A5.15,5.15,0,0,1,153,5.37Zm13.17,27q.51,1.71.69,1.44a3,3,0,0,0-.08-1.59L159.31,9.67a2.38,2.38,0,0,0-.62-.94c-.74-.46-.74-.06,0,1.18ZM180.34,6.64c-.05-.92,0-.8-.36-1.2s-.28.45-.28.64v.41l-6.76,17.82q-1.24,3-.42,1.88a6.94,6.94,0,0,0,1-1.62Zm4.08,25.6c-.14.68-.12,1,.08,1s.38-.36.54-1V8.48c-.16-.73-.33-1.06-.51-1s-.21.44-.11,1.15Z"/><path class="cls-1" d="M210.82,1.48c.48.08.88.1.83.68,0,.37-.17.53-.42.5s-.59.23-1,.8a7.44,7.44,0,0,0-1.31,2.37V29.21a7.06,7.06,0,0,0,1.71,5.22c.47.57.88.85,1.25.85s.55.23.55.71-.27.73-.81.79l-.82.09H199.05l-.81-.09c-.54-.06-.81-.32-.81-.79s.17-.72.53-.71.78-.28,1.27-.85a7.14,7.14,0,0,0,1.71-5.22V5.83a8,8,0,0,0-1.32-2.37c-.44-.57-.79-.84-1-.8-.53.07-.56-1,0-1.1l.44-.08ZM202,5.37V32.24c-.14.68-.12,1,.08,1s.38-.36.54-1v-27c0-.46-.55-1.65-.9-1.75s-.35,0-.2.28A3.51,3.51,0,0,1,202,5.37Z"/><path class="cls-1" d="M221.23,4a6.17,6.17,0,0,0-1.64,1.58q-2.06,3.36,3.25,8.3,2.24,2.05,6.41,5.37L233.82,23q7.86,6.63,9.79,15.1a17.79,17.79,0,0,1-.48,10.34A22,22,0,0,1,237,56.8a21.29,21.29,0,0,1-5.66,3.49,25.68,25.68,0,0,1-10.71,1.45q-8.59-.63-13.84-6.06a15.43,15.43,0,0,1-4-7.37,16.09,16.09,0,0,1,2.06-11.73A22.68,22.68,0,0,1,209.29,32a10.82,10.82,0,0,1,6.13-1.87,12.47,12.47,0,0,1,7,1.93,8.77,8.77,0,0,1,3.78,4.61,8.14,8.14,0,0,1,.29,3.89,11.08,11.08,0,0,1-.82,2.83A6.19,6.19,0,0,1,220.58,47a8.45,8.45,0,0,1-2.46,0c-1.83-.34-2.72-1.16-2.68-2.46a1.81,1.81,0,0,1,1.65-1.95h.35a1.84,1.84,0,0,1,1.86,1.32l.22.83.84-.24c2.7-.94,3.85-2.93,3.42-6-.47-2.8-2.21-4.66-5.22-5.6a8.45,8.45,0,0,0-5.8.17A11.55,11.55,0,0,0,206.9,39a12.54,12.54,0,0,0-.88,9.71,11,11,0,0,0,6.59,7.11,18.44,18.44,0,0,0,11,.39c5.23-1.42,7.84-3.33,10-7.7a14.6,14.6,0,0,0,1.72-6.23,14.15,14.15,0,0,0-1.21-6,18.42,18.42,0,0,0-5.84-7.49l-3.75-3-.57-.41a55.32,55.32,0,0,1-6.68-5.54c-2.35-2.53-4.2-5.18-4.26-9.26a9.8,9.8,0,0,1,4.22-8.26A11.92,11.92,0,0,1,223.67,0q5.07-.19,7.47,3.45a4.4,4.4,0,0,1,.48,4.1A2.59,2.59,0,0,1,230.7,9a2.65,2.65,0,0,1-2.33-.09,2,2,0,0,1-1.27-2,1.8,1.8,0,0,1,.48-1.29l.53-.66-.66-.53C225.91,3.23,223,2.76,221.23,4Zm-6.78,8.23a10.53,10.53,0,0,0,1.67,4.1c1.16,1.72,3.62,4,7.4,7q4.88,3.84,6.68,5.43c2.76,2.42,5,4.9,6,8.68.91,3.38,1.12,6.52-.13,9.31-1.43,3.22-2.19,4.57-4,6.43-.7.72-1.22,1.38-.09.62a11.73,11.73,0,0,0,1.86-1.8,19.1,19.1,0,0,0,3.55-7.57,12.24,12.24,0,0,0,.12-3.31,24.81,24.81,0,0,0-1.65-6.51,18.19,18.19,0,0,0-4.63-5.82c-2.87-2.63-6-5-9.31-7.69A32.14,32.14,0,0,1,217.57,17a10.72,10.72,0,0,1-2.06-3.47,10.53,10.53,0,0,1-.27-6.92c.26-.76.23-.8-.3,0a8.33,8.33,0,0,0-.49,5.69Z"/><path class="cls-1" d="M262.2,1.48c.1-.42-.08-.56.39-.68s.69.15.9.46l1,7.36-.09.45c0,.3-.26.42-.61.38s-.53-.22-.48-.56c.06-.53-.88-1.28-1.45-1.66h-7.2a4.87,4.87,0,0,0-.57,1.25V29.21a7.06,7.06,0,0,0,1.71,5.22c.47.57.88.85,1.25.85s.55.23.55.71-.27.73-.81.79l-.82.09H244.28l-.81-.09c-.54-.06-.81-.32-.81-.79s.18-.72.53-.71.78-.28,1.27-.85a7.1,7.1,0,0,0,1.71-5.22V8.48a7.4,7.4,0,0,0-.57-1.25h-7.2c-.57.38-1.54,1.11-1.47,1.66s-1,.76-1.08.18l-.09-.45,1-7.36c.21-.32.33-.58.93-.46.22.06.33.14.33.25a1.54,1.54,0,0,0,.06.43Zm-24.72,5.2L238,3c.05-.57-.29-.35-.38-.09l-.55,3.76c-.07,1.17.3.76.41,0Zm9.81,1.67V32c-.13.6-.11.9.06.88s.33-.31.47-.88V8.26A2.46,2.46,0,0,0,247,6.71c-.31-.1-.27,0-.18.26a4,4,0,0,1,.44,1.38Z"/><path class="cls-1" d="M267.85,2.66c-.26,0-.35-.13-.26-.5a.7.7,0,0,1,.59-.6l.46-.08H283l.46.08a.71.71,0,0,1,.59.6c.09.37,0,.53-.27.5-.76-.11-1.32,2.4-1.31,2.85a6.67,6.67,0,0,0,.15,1.26L289,32.57a8.72,8.72,0,0,0,1.62,2.32c.5.59.87.86,1.12.82.49-.09.78.95.19,1.07l-.43.09H280.19l-.46-.09a.74.74,0,0,1-.6-.61c-.08-.35,0-.51.27-.46.66.11,1.24-2,1.28-2.54a4.66,4.66,0,0,0,0-1.18l-1.25-4.85h-9.51l-1.16,4.79a4.35,4.35,0,0,0,.46,3c.25.59.51.86.78.82s.36.11.28.46a.74.74,0,0,1-.61.61l-.47.09H260c-.45-.1-.85-.11-.73-.7.08-.35.23-.51.48-.46s.62-.23,1.15-.82a10.23,10.23,0,0,0,1.51-2.08l6.81-27.29C269.14,5,268.61,2.55,267.85,2.66ZM262.8,34.39c.42,0,1.2-1.13,1.32-1.5l6.74-27.17a10.06,10.06,0,0,0-.44-1.8c-.08-.12-.42-.74-.48-.13-.05.27.3,1.55.3,1.8l-6.71,27a4,4,0,0,1-.84,1.43C262.52,34.28,262.55,34.39,262.8,34.39ZM274.59,8.07l-3.27,13.32H278Zm1.14-.71,3.47,14h.66L276.3,7.1c-.12-.36-.87-1.49-1.29-1.49-.27,0-.31.11-.14.33A3.84,3.84,0,0,1,275.73,7.36Zm4.9,19.78L282,32.65c0,.24-.38,1.53-.33,1.78.07.65.43,0,.51-.13a8.54,8.54,0,0,0,.41-1.8l-1.31-5.36Z"/></g></g></svg>